<mxfile host="app.diagrams.net" modified="2024-06-07T02:53:25.448Z" agent="Mozilla/5.0 (Macintosh; Intel Mac OS X 10_15_7) AppleWebKit/537.36 (KHTML, like Gecko) Chrome/125.0.0.0 Safari/537.36" etag="wfPGQC2H98YgRtpLtJpL" version="24.5.1" type="github">
  <diagram name="第 1 页" id="n9BJiZA9naeOwXcYTyGx">
    <mxGraphModel dx="1026" dy="562" grid="1" gridSize="10" guides="1" tooltips="1" connect="1" arrows="1" fold="1" page="1" pageScale="1" pageWidth="827" pageHeight="1169" math="0" shadow="0">
      <root>
        <mxCell id="0" />
        <mxCell id="1" parent="0" />
        <mxCell id="0Qk2AzKA6F4xNOGgDEP6-4" value="" style="ellipse;whiteSpace=wrap;html=1;fillColor=none;" vertex="1" parent="1">
          <mxGeometry x="25" y="100" width="490" height="290" as="geometry" />
        </mxCell>
        <mxCell id="0Qk2AzKA6F4xNOGgDEP6-1" value="&lt;div&gt;Product Quantity Filter&lt;/div&gt;15K" style="ellipse;whiteSpace=wrap;html=1;fillColor=none;" vertex="1" parent="1">
          <mxGeometry x="90" y="190" width="200" height="140" as="geometry" />
        </mxCell>
        <mxCell id="0Qk2AzKA6F4xNOGgDEP6-2" value="&lt;div&gt;Related Keywords&lt;/div&gt;&lt;div&gt;&amp;nbsp;Cache Each Other&lt;/div&gt;15K" style="ellipse;whiteSpace=wrap;html=1;fillColor=none;" vertex="1" parent="1">
          <mxGeometry x="250" y="190" width="190" height="140" as="geometry" />
        </mxCell>
        <mxCell id="0Qk2AzKA6F4xNOGgDEP6-3" value="1K" style="text;html=1;align=center;verticalAlign=middle;resizable=0;points=[];autosize=1;strokeColor=none;fillColor=none;" vertex="1" parent="1">
          <mxGeometry x="250" y="245" width="40" height="30" as="geometry" />
        </mxCell>
        <mxCell id="0Qk2AzKA6F4xNOGgDEP6-5" value="Delta Keywords/Day(Last 30 Days&lt;span style=&quot;background-color: initial;&quot;&gt;)&lt;/span&gt;&lt;div&gt;&lt;span style=&quot;background-color: initial;&quot;&gt;21K&lt;/span&gt;&lt;/div&gt;" style="text;html=1;align=center;verticalAlign=middle;resizable=0;points=[];autosize=1;strokeColor=none;fillColor=none;" vertex="1" parent="1">
          <mxGeometry x="170" y="130" width="210" height="40" as="geometry" />
        </mxCell>
        <mxCell id="0Qk2AzKA6F4xNOGgDEP6-6" value="Num May Change" style="shape=document;whiteSpace=wrap;html=1;boundedLbl=1;" vertex="1" parent="1">
          <mxGeometry x="70" y="390" width="120" height="80" as="geometry" />
        </mxCell>
        <mxCell id="0Qk2AzKA6F4xNOGgDEP6-7" value="Data Island" style="shape=document;whiteSpace=wrap;html=1;boundedLbl=1;" vertex="1" parent="1">
          <mxGeometry x="380" y="390" width="120" height="80" as="geometry" />
        </mxCell>
        <mxCell id="0Qk2AzKA6F4xNOGgDEP6-8" value="Keyword A&lt;div&gt;(A1-A10)&lt;/div&gt;" style="ellipse;whiteSpace=wrap;html=1;fillColor=none;" vertex="1" parent="1">
          <mxGeometry x="560" y="180" width="120" height="80" as="geometry" />
        </mxCell>
        <mxCell id="0Qk2AzKA6F4xNOGgDEP6-9" value="Keyword B&lt;div&gt;(A1,B2-B10)&lt;/div&gt;" style="ellipse;whiteSpace=wrap;html=1;fillColor=none;" vertex="1" parent="1">
          <mxGeometry x="660" y="180" width="120" height="80" as="geometry" />
        </mxCell>
        <mxCell id="0Qk2AzKA6F4xNOGgDEP6-10" value="A1" style="text;html=1;align=center;verticalAlign=middle;resizable=0;points=[];autosize=1;strokeColor=none;fillColor=none;" vertex="1" parent="1">
          <mxGeometry x="650" y="205" width="40" height="30" as="geometry" />
        </mxCell>
        <mxCell id="0Qk2AzKA6F4xNOGgDEP6-11" value="Keyword A&lt;div&gt;(A1-A10)&lt;/div&gt;" style="ellipse;whiteSpace=wrap;html=1;fillColor=none;" vertex="1" parent="1">
          <mxGeometry x="540" y="310" width="120" height="80" as="geometry" />
        </mxCell>
        <mxCell id="0Qk2AzKA6F4xNOGgDEP6-12" value="Keyword B&lt;div&gt;(B1-B10)&lt;/div&gt;" style="ellipse;whiteSpace=wrap;html=1;fillColor=none;" vertex="1" parent="1">
          <mxGeometry x="680" y="310" width="120" height="80" as="geometry" />
        </mxCell>
        <mxCell id="0Qk2AzKA6F4xNOGgDEP6-13" value="" style="shape=flexArrow;endArrow=classic;html=1;rounded=0;" edge="1" parent="1">
          <mxGeometry width="50" height="50" relative="1" as="geometry">
            <mxPoint x="670" y="270" as="sourcePoint" />
            <mxPoint x="670" y="310" as="targetPoint" />
          </mxGeometry>
        </mxCell>
      </root>
    </mxGraphModel>
  </diagram>
</mxfile>
